<?xml version="1.0" encoding="utf-8"?>
<!DOCTYPE svg PUBLIC "-//W3C//DTD SVG 1.0//EN" "http://www.w3.org/TR/2001/REC-SVG-20010904/DTD/svg10.dtd">
<svg version="1.0" xmlns="http://www.w3.org/2000/svg" width="383px" height="360px" viewBox="0 0 383 360" preserveAspectRatio="xMidYMid meet">
<g fill="#000000" transform="rotate(-5, 191.5, 180)">
    <!-- Adjust the rotation angle and center (191.5, 180) as needed -->
    <path d="M0 180 l0 -180 191.5 0 191.5 0 0 180 0 180 -191.5 0 -191.5 0 0 -180z m114.1 141.4 c4.4 -2.6 6.7 -6.1 11.9 -18.1 2.3 -5.4 5 -11.6 6 -13.8 31.8 -72.7 50.4 -115.2 54.5 -124.5 2.6 -5.8 5.2 -11.1 5.7 -11.7 0.8 -1 7.8 -1.3 28.7 -1.3 23.4 0 28 -0.2 29.9 -1.6 2.8 -1.9 2.8 -4.9 0 -6.8 -1.9 -1.4 -6.3 -1.6 -28.3 -1.6 -23.1 0 -26.4 0.2 -30 1.9 -2.2 1 -4.7 2.7 -5.7 3.7 -0.9 1 -5.2 10.2 -9.6 20.4 -4.4 10.2 -14.3 32.7 -22 50 -7.7 17.3 -16.1 36.5 -18.7 42.5 -2.6 6.1 -5.9 13.5 -7.2 16.5 -1.4 3 -4.2 9.3 -6.3 14 -7.4 16.6 -10 22 -10.7 22.1 -6.6 0.4 -53.3 0.7 -54.6 0.3 -3.8 -1.2 -1.6 -8.5 11.8 -39.4 7 -16.2 15.8 -36.2 19.5 -44.5 3.8 -8.2 11.9 -26.5 18 -40.5 6.2 -14 17.1 -38.5 24.3 -54.5 28.9 -64.5 28.1 -62.8 31.7 -65.3 l3.4 -2.3 45.6 0.3 45.5 0.3 8 2.8 c11.6 4.1 21 10 29.5 18.7 8.9 9 13.1 15.8 17.4 27.7 3 8.5 3.1 9.3 3.1 25.8 0 18.3 -0.8 22.8 -6.2 34.5 -11.2 24.2 -37.5 42 -61.9 42 -8.6 0 -12.9 1.3 -17.1 5.3 -4.6 4.3 -4.8 6.7 -1.2 15 3.6 8.1 26.1 57.8 32 70.5 2.2 4.6 3.9 8.7 3.9 9.1 0 0.4 1.1 1.8 2.4 3 l2.5 2.3 2.5 -2.5 2.6 -2.6 -2.4 -5.3 c-1.3 -2.9 -6.4 -14.3 -11.4 -25.3 -4.9 -11 -12.2 -26.9 -16.1 -35.4 -7.3 -15.9 -8.7 -21.5 -5.3 -22.5 0.9 -0.3 4.4 -0.8 7.7 -1.1 30.1 -3.2 56.5 -22.1 70 -50 8.9 -18.2 11.4 -37.7 7.1 -54 -8.9 -33.3 -33.1 -58.1 -65.1 -66.6 -8.8 -2.3 -9.9 -2.4 -50 -2.4 l-41 0 -5.7 2.8 c-10.3 5.1 -9.3 3.2 -48.1 91.7 -4.7 10.7 -17 38.6 -27.2 62 -43 97.8 -41.5 94.1 -41.5 96.5 0 1.2 1.2 4 2.7 6.2 2.4 3.7 4.6 5.3 11.3 7.7 0.8 0.3 12.6 0.4 26.1 0.3 22.4 -0.3 24.9 -0.5 28 -2.3z"/>
</g>

 <g fill="#294776">
  <path d="M264.2 324.7 c-1.2 -1.3 -2.2 -2.6 -2.2 -2.9 0 -0.3 -1.7 -4.4 -3.9 -9 -7.2 -15.5 -15.3 -33.3 -16.2 -35.5 -0.7 -2 -0.5 -2.3 1.5 -2.3 2.4 0 4.6 3.4 4.6 7 0 1.1 0.4 2 0.8 2 1.1 0 5.2 8.6 5.2 11 0 1.1 0.4 2 0.9 2 0.9 0 5.1 9 5.1 11 0 0.6 0.7 1.8 1.5 2.6 0.8 0.8 2.2 3.7 3.2 6.4 1.9 5.3 4.6 7 7.3 4.5 1.9 -1.7 6 -2 6 -0.5 0 0.6 -1.1 2.2 -2.5 3.5 -3.2 3.3 -8.3 3.4 -11.3 0.2z"/>
  <path d="M272.2 313.7 c-2.3 -5.6 -2.9 -10.7 -1.1 -10.7 1.1 0 6.9 12 6.9 14.5 0 0.8 -0.8 1.5 -1.8 1.5 -1.3 0 -2.5 -1.6 -4 -5.3z"/>
  <path d="M262.7 292.8 c-2.1 -4.6 -3.7 -9.1 -3.7 -10 0 -1 -0.4 -1.8 -0.8 -1.8 -1.2 0 -6.2 -12 -6.2 -14.7 0 -1.3 -0.6 -2.3 -1.2 -2.3 -1.6 0 -5.8 -9.6 -5.8 -13.2 0 -1.8 -0.5 -2.8 -1.5 -2.8 -0.8 0 -1.8 -1.2 -2.1 -2.7 -0.4 -1.6 -1.1 -3 -1.5 -3.3 -0.5 -0.3 -1.1 -3.1 -1.5 -6.1 l-0.6 -5.6 5.3 -0.6 c8 -1 9.9 -0.9 9.9 0.7 0 1.5 -2.9 2.6 -7 2.6 -5.5 0.1 -5.4 0.9 2.6 18.1 6.9 15 17.6 38.6 21 46.7 1.4 3.1 1.3 3.2 -0.9 3.2 -2 0 -3 -1.3 -6 -8.2z"/>
  <path d="M236.3 265.3 c-7.6 -16.7 -13.3 -30.3 -13.3 -31.7 0 -0.9 0.8 -1.6 1.8 -1.6 2 0 4.2 4.9 4.2 9.3 0 1.7 0.5 2.7 1.5 2.7 1 0 1.5 1.1 1.5 3.5 0 2.2 0.5 3.5 1.3 3.5 1.5 0 4.7 6.1 4.7 9 0 1.1 0.4 2 0.8 2 1.3 0 3.2 4.8 3.2 8 0 5 -1.9 3.4 -5.7 -4.7z"/>
  <path d="M254 230 c0 -1.2 0.7 -2 1.6 -2 2.5 0 20.8 -6.3 22.2 -7.7 0.7 -0.7 2 -1.3 2.8 -1.3 0.8 0 1.4 -0.4 1.4 -0.8 0 -0.5 1.7 -1.7 3.8 -2.8 2 -1 4.1 -2.5 4.5 -3.1 0.4 -0.7 1.6 -1.3 2.6 -1.3 1 0 2.1 -0.9 2.4 -2 0.4 -1.6 1.3 -2 4.4 -2 l3.8 0.1 -4 3.6 c-9.4 8.4 -23.1 15.8 -35.8 19.3 -8.9 2.5 -9.7 2.5 -9.7 0z"/>
  <path d="M223.4 227.8 c0.8 -4.3 5.8 -9.2 10.5 -10.7 2.1 -0.6 6.4 -1.1 9.5 -1.1 4.9 0 5.6 0.2 5.6 2 0 1.8 -0.7 2 -7.5 2 -4.3 0 -7.5 0.4 -7.5 1 0 0.6 -1.3 1 -3 1 -2.4 0 -3 0.4 -3 2.3 0 4.3 -1.2 6.7 -3.2 6.7 -1.8 0 -2 -0.4 -1.4 -3.2z"/>
  <path d="M250 217.7 c0 -1 2.1 -2 6.9 -3.2 21.3 -5.2 40.2 -20.8 49.4 -40.5 5.2 -11.2 6.2 -16.5 6.2 -31.5 -0.1 -13.1 -0.3 -14.6 -3.2 -22.7 l-3.1 -8.8 2.3 0 c2 0 2.7 1 4.4 6.3 3.4 10.2 4.6 24.1 3.2 35.5 -1.4 11.5 -4.7 22.2 -6.7 22.2 -0.9 0 -1.4 1.1 -1.4 3 0 1.7 -0.4 3 -1 3 -0.5 0 -1 0.9 -1 2 0 1.1 -0.4 2 -1 2 -0.5 0 -1 0.7 -1 1.5 0 0.8 -0.4 1.5 -0.9 1.5 -0.5 0 -1.1 0.9 -1.4 2 -0.3 1.2 -1.4 2 -2.6 2 -1.5 0 -2.1 0.6 -2.1 2.3 0 2.6 -3.8 6.7 -6.2 6.7 -0.9 0 -1.8 0.9 -2.1 2.1 -0.3 1.1 -1.9 2.5 -3.6 3.2 -1.7 0.6 -3.1 1.5 -3.1 1.9 0 0.4 -0.7 0.8 -1.5 0.8 -0.8 0 -1.5 0.4 -1.5 0.8 0 1.3 -4.8 3.2 -8 3.2 -2 0 -3 0.5 -3 1.5 0 1 -1 1.5 -3.4 1.5 -1.9 0 -3.6 0.5 -3.8 1 -0.2 0.6 -2.7 1.3 -5.6 1.7 -4.3 0.5 -5.2 0.3 -5.2 -1z"/>
  <path d="M156.3 205.8 c1.9 -4.6 3.7 -4.8 3.7 -0.4 0 3.2 -0.3 3.6 -2.5 3.6 -2.4 0 -2.5 -0.1 -1.2 -3.2z"/>
  <path d="M86.9 204.8 c4.7 -12 7.1 -14.8 7.1 -8.3 0 2.4 -0.5 3.5 -1.5 3.5 -1 0 -1.5 1.1 -1.5 3.5 0 3.1 -0.3 3.5 -2.5 3.5 -2.1 0 -2.3 -0.3 -1.6 -2.2z"/>
  <path d="M304 202.6 c0 -1.9 0.6 -3.9 1.3 -4.3 0.8 -0.4 1.6 -1.6 2 -2.5 0.3 -1 1.3 -1.8 2.2 -1.8 0.8 0 1.5 -0.9 1.5 -1.9 0 -1.1 0.6 -2.6 1.3 -3.3 0.7 -0.7 2.1 -3.2 3.1 -5.5 1.1 -2.4 2.3 -4.3 2.8 -4.3 0.4 0 0.8 -0.9 0.8 -1.9 0 -1.1 0.3 -2.1 0.8 -2.3 0.9 -0.4 4 -11.6 5.5 -20 0.9 -5.6 1.5 -6.8 3.1 -6.8 1.7 0 1.8 0.5 1.2 4.9 -2 15.3 -9.4 33.3 -18.5 45.3 -6.4 8.4 -7.1 8.8 -7.1 4.4z"/>
  <path d="M172 199.7 c0 -2 0.7 -4.2 1.5 -5.1 0.8 -0.8 1.5 -2.1 1.5 -2.9 0 -0.8 3.7 -10.1 8.2 -20.7 8.9 -21 8.9 -21 17.4 -21 4.4 0 4.4 0 4.4 -3.5 0 -3.5 -0.1 -3.5 -4.3 -3.5 -6 0 -12.8 3.6 -15 8 -0.9 1.9 -4.5 9.6 -7.8 17 -3.3 7.4 -6.5 13.7 -7 13.8 -0.5 0.2 -0.9 1.2 -0.9 2.2 0 3.7 -2.2 7 -4.7 7 -2.2 0 -2.3 -0.1 -0.9 -3.2 13.9 -32.5 18 -41.6 19.4 -43.2 1 -1 3.5 -2.7 5.7 -3.7 3.6 -1.7 7 -1.9 33.3 -1.9 l29.3 0 2.6 2.6 c2.1 2.1 2.4 3.2 1.9 6.2 -1.1 7.1 -1.4 7.2 -32.6 7.2 -21.4 0 -28 0.3 -28.8 1.3 -0.6 0.7 -2.7 4.9 -4.6 9.2 -17.1 39.1 -18.6 41.9 -18.6 34.2z"/>
  <path d="M104 197.6 c0 -2.5 0.4 -3.6 1.5 -3.6 1 0 1.5 -1 1.5 -3.2 0 -4.3 1.2 -6.1 3.8 -5.6 2 0.3 2 0.5 -1.2 7.7 -3.7 8.5 -5.6 10.1 -5.6 4.7z"/>
  <path d="M160.3 196.8 c1.9 -4.6 3.7 -4.8 3.7 -0.4 0 3.2 -0.3 3.6 -2.5 3.6 -2.4 0 -2.5 -0.1 -1.2 -3.2z"/>
  <path d="M97.3 180.8 c1.9 -4.6 3.7 -4.8 3.7 -0.4 0 3.2 -0.3 3.6 -2.5 3.6 -2.4 0 -2.5 -0.1 -1.2 -3.2z"/>
  <path d="M112 179.6 c0 -2.5 0.4 -3.6 1.5 -3.6 1 0 1.5 -1 1.5 -3.4 0 -1.9 0.7 -4.1 1.5 -5 0.8 -0.8 1.5 -2.1 1.5 -2.9 0 -1.3 7.3 -18.1 25.5 -58.7 11.3 -25.1 14.8 -32.5 15.6 -32.8 0.5 -0.2 0.9 -1 0.9 -1.8 0 -0.8 1.9 -2.4 4.3 -3.4 3.6 -1.7 6.6 -2 20 -2 15 0 15.7 0.1 15.7 2 0 1.9 -0.7 2 -15.2 2 -19.2 0 -20.3 0.5 -25.5 11.8 -4.2 9.1 -20.5 45.5 -34.8 77.7 -5.7 12.6 -10.8 23.1 -11.4 23.3 -0.7 0.2 -1.1 -1 -1.1 -3.2z"/>
  <path d="M100.9 172.8 c0.9 -2.5 11.7 -27.1 32.8 -74.8 8.4 -19 14.7 -32 16.9 -34.7 4 -4.8 11.8 -9 18.7 -9.9 4.3 -0.6 4.7 -0.5 4.7 1.5 0 1.6 -0.6 2.1 -2.8 2.1 -5.6 0 -16.6 7.2 -20 12.9 -0.8 1.3 -5.8 12.5 -11.2 25 -17.4 40.1 -32.2 72.6 -33.1 72.9 -0.5 0.2 -0.9 1.2 -0.9 2.2 0 3.3 -1.2 5 -3.6 5 -2 0 -2.2 -0.3 -1.5 -2.2z"/>
  <path d="M326 135.2 c0 -1.6 -0.9 -6.2 -2 -10.3 -2.1 -8.1 -2.5 -12.9 -1 -12.9 0.5 0 1.3 0.8 1.8 1.8 1.3 2.3 4 13.5 4.8 19.5 0.6 4.3 0.5 4.7 -1.5 4.7 -1.6 0 -2.1 -0.6 -2.1 -2.8z"/>
  <path d="M315.9 103.8 c-1.3 -2.9 -2.7 -5.4 -3.1 -5.6 -0.5 -0.2 -0.8 -1 -0.8 -1.8 0 -0.8 -0.4 -1.4 -1 -1.4 -0.5 0 -1 -0.8 -1 -1.9 0 -1 -0.9 -2.1 -2 -2.4 -1.4 -0.3 -2 -1.4 -2 -3.1 0 -1.9 -0.5 -2.6 -1.8 -2.6 -2.5 0 -5.2 -3.1 -5.2 -5.8 0 -1.8 -0.6 -2.2 -3 -2.2 -1.9 0 -3.4 -0.7 -4.2 -2 -0.7 -1.1 -1.8 -2 -2.5 -2 -0.7 0 -1.3 -0.4 -1.3 -1 0 -0.5 -0.6 -1 -1.4 -1 -0.8 0 -1.6 -0.3 -1.8 -0.7 -0.7 -1.8 -18.1 -9.3 -25.2 -10.9 -6 -1.4 -7.6 -2.2 -7.6 -3.6 0 -2.3 1.6 -2.3 12 0.6 24.7 6.7 48.2 26.7 57.5 48.9 1.5 3.7 1.5 3.7 -0.8 3.7 -1.9 0 -2.9 -1.1 -4.8 -5.2z"/>
  <path d="M301.3 103.2 c-1.8 -2.6 -4.2 -6 -5.4 -7.5 l-2.2 -2.8 3.4 0.3 c2.6 0.2 3.5 0.8 3.7 2.6 0.2 1.2 1 2.2 1.8 2.2 0.8 0 1.4 0.7 1.4 1.5 0 0.8 0.5 1.5 1 1.5 0.6 0 1 1.6 1 3.5 0 1.9 -0.3 3.5 -0.7 3.5 -0.5 0 -2.2 -2.2 -4 -4.8z"/>
  <path d="M283.7 84.5 c-7.7 -5.9 -17 -10.2 -27.3 -12.7 -5.8 -1.5 -8.4 -2.6 -8.4 -3.6 0 -1.2 1 -1.4 5.3 -0.9 7.2 0.7 21.7 5.6 21.7 7.3 0 0.8 1 1.4 2.4 1.4 1.4 0 3.1 0.7 4 1.5 0.8 0.8 1.9 1.5 2.5 1.5 0.6 0 1.1 0.5 1.1 1 0 0.6 0.6 1 1.4 1 2.1 0 3.8 2.6 3.4 5.4 -0.3 2.4 -0.3 2.4 -6.1 -1.9z"/>
  <path d="M237 55 c0 -1.7 0.7 -2 4.3 -2 5.6 0 8.7 0.9 8.7 2.6 0 1.1 -1.6 1.4 -6.5 1.4 -5.8 0 -6.5 -0.2 -6.5 -2z"/>
 </g>
 <g fill="#274f7b">
  <path d="M94 220.6 c0 -2.5 0.4 -3.6 1.5 -3.6 1 0 1.5 -1.1 1.5 -3.5 0 -2.4 0.5 -3.5 1.5 -3.5 1 0 1.5 -1.1 1.5 -3.5 0 -3.1 0.3 -3.5 2.5 -3.5 2.8 0 2.9 -0.7 -2.5 11.9 -4.1 9.4 -6 11.2 -6 5.7z"/>
  <path d="M151.3 216.8 c1.9 -4.6 3.7 -4.8 3.7 -0.4 0 3.2 -0.3 3.6 -2.5 3.6 -2.4 0 -2.5 -0.1 -1.2 -3.2z"/>
  <path d="M169 206.6 c0 -2 0.5 -3.6 1 -3.6 0.6 0 1 -1.1 1 -2.5 0 -1.6 0.6 -2.5 1.5 -2.5 1 0 1.5 -1.1 1.5 -3.5 0 -3.1 0.3 -3.5 2.5 -3.5 2.1 0 2.3 0.3 1.6 2.3 -6.7 16.7 -9.1 20.2 -9.1 13.3z"/>
  <path d="M157.3 203.8 c1.9 -4.6 3.7 -4.8 3.7 -0.4 0 3.2 -0.3 3.6 -2.5 3.6 -2.4 0 -2.5 -0.1 -1.2 -3.2z"/>
  <path d="M161.3 194.8 c1.9 -4.6 3.7 -4.8 3.7 -0.4 0 3.2 -0.3 3.6 -2.5 3.6 -2.4 0 -2.5 -0.1 -1.2 -3.2z"/>
  <path d="M106 192.6 c0 -3.2 0.3 -3.6 2.5 -3.6 2.4 0 2.5 0.1 1.2 3.2 -1.9 4.6 -3.7 4.8 -3.7 0.4z"/>
  <path d="M93.9 188.8 c2.9 -7.4 6.2 -13.8 7.1 -13.8 0.5 0 1 1.6 1 3.5 0 2.4 -0.5 3.5 -1.5 3.5 -1 0 -1.5 1 -1.5 2.9 0 4.4 -1 6.1 -3.6 6.1 -2 0 -2.2 -0.3 -1.5 -2.2z"/>
  <path d="M178 184.7 c0 -2 0.7 -4.2 1.5 -5.1 0.8 -0.8 1.5 -2.4 1.5 -3.5 0 -1.1 0.7 -2.6 1.5 -3.5 0.8 -0.8 1.5 -2.1 1.5 -2.9 0 -0.8 0.6 -3 1.4 -4.8 0.8 -1.9 1.7 -5.3 2.1 -7.6 1.2 -7.7 -1.8 -5 -6.9 6.2 -4.2 9 -5.2 10.5 -7.2 10.5 -2.4 0 -2.4 -0.1 -1 -3.2 7.1 -16.1 11 -24.5 11.9 -25.7 2.5 -3.1 9.1 -5.1 16.7 -5.1 l7.6 0 -0.4 3.4 c-0.2 1.8 0 4.2 0.6 5.2 1.6 3.3 0.3 4.4 -5.1 4.5 -2.9 0 -6.1 0.4 -7.2 0.8 -1.4 0.5 -4.1 5.8 -9 17.1 -7.2 16.7 -9.5 20.1 -9.5 13.7z"/>
  <path d="M111 181.6 c0 -3.2 0.3 -3.6 2.5 -3.6 2.4 0 2.5 0.1 1.2 3.2 -1.9 4.6 -3.7 4.8 -3.7 0.4z"/>
  <path d="M167 182.4 c2.6 -6.9 5 -8.5 5 -3.5 0 4.4 -1 6.1 -3.6 6.1 -2.1 0 -2.3 -0.3 -1.4 -2.6z"/>
  <path d="M117 167.6 c0 -3.2 0.3 -3.6 2.5 -3.6 2.4 0 2.5 0.1 1.2 3.2 -1.9 4.6 -3.7 4.8 -3.7 0.4z"/>
  <path d="M107.3 158.8 c1.9 -4.6 3.7 -4.8 3.7 -0.4 0 3.2 -0.3 3.6 -2.5 3.6 -2.4 0 -2.5 -0.1 -1.2 -3.2z"/>
  <path d="M124 151.6 c0 -3.2 0.3 -3.6 2.5 -3.6 2.4 0 2.5 0.1 1.2 3.2 -1.9 4.6 -3.7 4.8 -3.7 0.4z"/>
  <path d="M111.7 149.3 c2.8 -7.5 10.1 -22.7 11.1 -23.1 0.8 -0.2 1.2 0.8 1.2 2.6 0 4 -0.9 6.2 -2.6 6.2 -0.9 0 -1.4 1.1 -1.4 2.9 0 3.9 -0.9 6.1 -2.6 6.1 -0.9 0 -1.4 1.2 -1.4 3.5 0 3.1 -0.3 3.5 -2.5 3.5 -1.9 0 -2.3 -0.4 -1.8 -1.7z"/>
  <path d="M128 142.6 c0 -3.2 0.3 -3.6 2.5 -3.6 2.4 0 2.5 0.1 1.2 3.2 -1.9 4.6 -3.7 4.8 -3.7 0.4z"/>
 </g>
 <g fill="#245780">
  <path d="M155 238.5 c0 -2.4 0.5 -3.5 1.5 -3.5 1 0 1.5 -1.1 1.5 -3.5 0 -3.1 0.3 -3.5 2.5 -3.5 2.1 0 2.3 0.3 1.6 2.3 -4.7 11.9 -7.1 14.7 -7.1 8.2z"/>
  <path d="M144.3 232.8 c1.9 -4.6 3.7 -4.8 3.7 -0.4 0 3.2 -0.3 3.6 -2.5 3.6 -2.4 0 -2.5 -0.1 -1.2 -3.2z"/>
  <path d="M147.9 224.8 c3 -7.6 7.2 -15.8 8.1 -15.8 1.1 0 1.4 4.9 0.4 7.4 -0.3 0.9 -1.2 1.6 -2 1.6 -0.9 0 -1.4 1.1 -1.4 2.9 0 4.4 -1 6.1 -3.6 6.1 -2 0 -2.2 -0.3 -1.5 -2.2z"/>
  <path d="M162 222.6 c0 -2.5 0.4 -3.6 1.5 -3.6 1 0 1.5 -1.1 1.5 -3.5 0 -1.9 0.5 -3.5 1 -3.5 0.6 0 1 -1.1 1 -2.4 0 -1.4 0.7 -3.1 1.5 -4 0.8 -0.8 1.5 -2.4 1.5 -3.5 0 -1.2 0.6 -2.1 1.5 -2.1 1 0 1.5 -1.1 1.5 -3.5 0 -1.9 0.5 -3.5 1 -3.5 0.6 0 1 -0.9 1 -2 0 -1.1 1.1 -4.8 2.5 -8.2 1.4 -3.4 2.5 -6.2 2.5 -6.4 0 -0.1 -0.9 -0.4 -2 -0.7 -1.7 -0.4 -2.6 0.5 -5.2 5.6 -1.7 3.4 -3.4 6.4 -3.9 6.5 -0.5 0.2 -0.9 1 -0.9 1.7 0 2.5 -2.3 6.5 -3.7 6.5 -0.8 0 -1.3 1.2 -1.3 3.3 0 4.2 -1.2 6 -3.8 5.5 -2 -0.3 -2 -0.6 1.7 -8.8 10.1 -22.5 22.4 -47.6 23.9 -48.7 1.3 -1.1 2 -0.9 3.8 0.8 4.3 4.1 3.3 12.1 -3.9 28.9 -2 4.7 -7.4 17.5 -12 28.4 -4.5 11 -8.8 20.1 -9.5 20.4 -0.8 0.2 -1.2 -0.9 -1.2 -3.2z"/>
  <path d="M79.3 221.8 c1.9 -4.6 3.7 -4.8 3.7 -0.4 0 3.2 -0.3 3.6 -2.5 3.6 -2.4 0 -2.5 -0.1 -1.2 -3.2z"/>
  <path d="M83.3 212.8 c1.9 -4.6 3.7 -4.8 3.7 -0.4 0 3.2 -0.3 3.6 -2.5 3.6 -2.4 0 -2.5 -0.1 -1.2 -3.2z"/>
  <path d="M99 208.6 c0 -3.2 0.3 -3.6 2.5 -3.6 2.4 0 2.5 0.1 1.2 3.2 -1.9 4.6 -3.7 4.8 -3.7 0.4z"/>
  <path d="M87.9 202.8 c4.7 -12 7.1 -14.8 7.1 -8.3 0 2.4 -0.5 3.5 -1.5 3.5 -1 0 -1.5 1.1 -1.5 3.5 0 3.1 -0.3 3.5 -2.5 3.5 -2.1 0 -2.3 -0.3 -1.6 -2.2z"/>
  <path d="M103 199.6 c0 -3.2 0.3 -3.6 2.5 -3.6 2.4 0 2.5 0.1 1.2 3.2 -1.9 4.6 -3.7 4.8 -3.7 0.4z"/>
  <path d="M110 183.6 c0 -3.2 0.3 -3.6 2.5 -3.6 2.4 0 2.5 0.1 1.2 3.2 -1.9 4.6 -3.7 4.8 -3.7 0.4z"/>
  <path d="M98.9 177.8 c3 -7.6 7.2 -15.8 8.1 -15.8 1.1 0 1.4 4.9 0.4 7.4 -0.3 0.9 -1.2 1.6 -2 1.6 -0.9 0 -1.4 1.1 -1.4 2.9 0 4.4 -1 6.1 -3.6 6.1 -2 0 -2.2 -0.3 -1.5 -2.2z"/>
  <path d="M114 174.6 c0 -2 0.5 -3.6 1 -3.6 0.6 0 1 -1.1 1 -2.5 0 -1.6 0.6 -2.5 1.5 -2.5 1 0 1.5 -1.1 1.5 -3.5 0 -2.4 0.5 -3.5 1.5 -3.5 1 0 1.5 -1.1 1.5 -3.5 0 -3.1 0.3 -3.5 2.5 -3.5 1.4 0 2.5 0.1 2.5 0.3 -0.1 1.6 -11.1 25.2 -11.9 25.5 -0.7 0.2 -1.1 -1 -1.1 -3.2z"/>
  <path d="M108.3 156.8 c1.9 -4.6 3.7 -4.8 3.7 -0.4 0 3.2 -0.3 3.6 -2.5 3.6 -2.4 0 -2.5 -0.1 -1.2 -3.2z"/>
  <path d="M126 146.5 c0 -3.1 0.3 -3.5 2.5 -3.5 2.9 0 3 0.2 1 4 -2.1 4 -3.5 3.8 -3.5 -0.5z"/>
  <path d="M113.3 145.8 c1.9 -4.6 3.7 -4.8 3.7 -0.4 0 3.2 -0.3 3.6 -2.5 3.6 -2.4 0 -2.5 -0.1 -1.2 -3.2z"/>
 </g>
 <g fill="#216286">
  <path d="M56.8 326.3 c-3.3 -0.8 -2 -3.3 1.7 -3.3 2.8 0 3.5 0.4 3.5 2 0 2 -1.4 2.3 -5.2 1.3z"/>
  <path d="M78 325 c0 -1.8 0.7 -2 7 -2 6.3 0 7 0.2 7 2 0 1.8 -0.7 2 -7 2 -6.3 0 -7 -0.2 -7 -2z"/>
  <path d="M99 325 c0 -1.7 0.7 -2 4.5 -2 4.9 0 6.4 2.3 2.3 3.4 -4.5 1.2 -6.8 0.7 -6.8 -1.4z"/>
  <path d="M42.7 312 c-0.7 -2.8 0.3 -6 1.9 -6 1 0 1.4 1.3 1.4 4 0 4.3 -2.3 5.7 -3.3 2z"/>
  <path d="M61 312.5 c0 -0.9 -0.9 -1.5 -2.5 -1.5 -2.1 0 -2.5 -0.5 -2.5 -2.7 0 -5.2 1.1 -7.3 3.6 -7.3 2.3 0 2.3 0 0.8 4.2 -1.6 4.6 -0.7 6.2 3.1 5.3 2.9 -0.6 6.5 0.5 6.5 2.1 0 1 -1.3 1.4 -4.5 1.4 -3.3 0 -4.5 -0.4 -4.5 -1.5z"/>
  <path d="M78 312.6 c0 -2.1 4 -2.7 18.6 -2.5 12.5 0.1 13.4 0.2 13.4 2 0 1.8 -0.9 1.9 -16 1.9 -13 0 -16 -0.3 -16 -1.4z"/>
  <path d="M125 307.5 c0 -2.4 0.5 -3.5 1.5 -3.5 1 0 1.5 -1.1 1.5 -3.5 0 -3.1 0.3 -3.5 2.5 -3.5 2.1 0 2.3 0.3 1.6 2.3 -4.7 11.9 -7.1 14.7 -7.1 8.2z"/>
  <path d="M111.2 307.3 c3.5 -7.4 4.8 -8.1 4.8 -2.8 0 3.1 -0.3 3.5 -2.6 3.5 -1.4 0 -2.4 -0.3 -2.2 -0.7z"/>
  <path d="M132 291.5 c0 -3.1 0.3 -3.5 2.6 -3.5 1.4 0 2.4 0.3 2.2 0.8 -3.5 7.3 -4.8 8 -4.8 2.7z"/>
  <path d="M49.3 289.8 c1.9 -4.6 3.7 -4.8 3.7 -0.4 0 3.2 -0.3 3.6 -2.5 3.6 -2.4 0 -2.5 -0.1 -1.2 -3.2z"/>
  <path d="M118 292.6 c0 -1.5 6.2 -13.6 7 -13.6 0.6 0 1 1.6 1 3.5 0 2.4 -0.5 3.5 -1.5 3.5 -1 0 -1.5 1.1 -1.5 3.5 0 3.1 -0.3 3.5 -2.5 3.5 -1.4 0 -2.5 -0.2 -2.5 -0.4z"/>
  <path d="M67 281.6 c0 -3.2 0.3 -3.6 2.5 -3.6 2.4 0 2.5 0.1 1.2 3.2 -1.9 4.6 -3.7 4.8 -3.7 0.4z"/>
  <path d="M54 279.4 c2.6 -6.9 5 -8.5 5 -3.5 0 4.4 -1 6.1 -3.6 6.1 -2.1 0 -2.3 -0.3 -1.4 -2.6z"/>
  <path d="M138 277.6 c0 -2.5 0.4 -3.6 1.5 -3.6 1 0 1.5 -1 1.5 -2.9 0 -3.9 0.9 -6.1 2.6 -6.1 0.9 0 1.4 -1.2 1.4 -3.5 0 -2.4 0.5 -3.5 1.5 -3.5 1 0 1.5 -1.1 1.5 -3.5 0 -2.4 0.5 -3.5 1.5 -3.5 1 0 1.5 -1.1 1.5 -3.5 0 -2.4 0.5 -3.5 1.5 -3.5 1 0 1.5 -1.1 1.5 -3.5 0 -2.4 0.5 -3.5 1.5 -3.5 1 0 1.5 -1.1 1.5 -3.5 0 -3.1 0.3 -3.5 2.5 -3.5 1.9 0 2.3 0.4 1.8 1.8 -4.1 10.7 -21.2 48.7 -22.1 49 -0.8 0.2 -1.2 -0.9 -1.2 -3.2z"/>
  <path d="M125.2 276.3 c3.5 -7.4 4.8 -8.1 4.8 -2.8 0 3.1 -0.3 3.5 -2.6 3.5 -1.4 0 -2.4 -0.3 -2.2 -0.7z"/>
  <path d="M58.1 270.3 c0.1 -2.2 16.7 -37.7 17.7 -38.1 0.8 -0.2 1.2 0.7 1.2 2.6 0 4 -0.9 6.2 -2.6 6.2 -0.9 0 -1.4 1.1 -1.4 2.9 0 3.9 -0.9 6.1 -2.6 6.1 -0.9 0 -1.4 1.1 -1.4 3 0 2.7 -1.7 7.8 -3 9 -0.3 0.3 -1.2 2.4 -2 4.8 -1 3.3 -1.8 4.2 -3.7 4.2 -1.2 0 -2.3 -0.3 -2.2 -0.7z"/>
  <path d="M129.9 265.8 c4.7 -12 7.1 -14.8 7.1 -8.3 0 2.4 -0.5 3.5 -1.5 3.5 -1 0 -1.5 1.1 -1.5 3.5 0 3.1 -0.3 3.5 -2.5 3.5 -2.1 0 -2.3 -0.3 -1.6 -2.2z"/>
  <path d="M136.9 249.7 c2.2 -5.6 25.8 -57.2 30.9 -67.5 5.1 -10.1 5.9 -11.2 8.4 -11.2 1.5 0 3 0.5 3.3 1 0.3 0.6 1.7 1 3.1 1 3 0 3.2 -0.7 -4.2 18 -9 22.9 -15 36.4 -16.2 36.8 -2.5 0.8 -1 -6.1 3.9 -18.2 2.8 -6.9 4.9 -13.2 4.6 -14.1 -1.4 -3.6 -3.8 -1.2 -8.3 8.5 -2.6 5.5 -5.3 10 -6.1 10 -0.8 0 -1.3 1.2 -1.3 2.9 0 3.9 -0.9 6.1 -2.6 6.1 -0.9 0 -1.4 1.1 -1.4 3 0 3.2 -1.9 8 -3.2 8 -0.4 0 -0.8 0.9 -0.8 2 0 2.4 -3.1 9 -4.2 9 -0.4 0 -0.8 0.9 -0.8 1.9 0 3.4 -1.2 5.1 -3.6 5.1 -2 0 -2.2 -0.3 -1.5 -2.3z"/>
  <path d="M83 245.2 c0 -4 0.9 -6.2 2.6 -6.2 0.9 0 1.4 -1.1 1.4 -2.9 0 -3.9 0.9 -6.1 2.6 -6.1 0.9 0 1.4 -1.1 1.4 -3 0 -3.7 1.9 -8 3.7 -8 0.8 0 1.3 -1.2 1.3 -3.5 0 -3.1 0.3 -3.5 2.5 -3.5 2.9 0 3.4 -1.5 -6 19.4 -7.2 16.1 -9.5 19.4 -9.5 13.8z"/>
  <path d="M76 229.7 c0 -1.5 10 -22.2 10.9 -22.5 0.7 -0.2 1.1 1 1.1 3.2 0 2.5 -0.4 3.6 -1.5 3.6 -1 0 -1.5 1 -1.5 2.9 0 3.9 -0.9 6.1 -2.6 6.1 -0.9 0 -1.4 1.2 -1.4 3.5 0 3.1 -0.3 3.5 -2.5 3.5 -1.4 0 -2.5 -0.1 -2.5 -0.3z"/>
  <path d="M102 201.5 c0 -2.4 0.5 -3.5 1.5 -3.5 1 0 1.5 -1.1 1.5 -3.5 0 -3.1 0.3 -3.5 2.5 -3.5 2.1 0 2.3 0.3 1.6 2.3 -4.7 11.9 -7.1 14.7 -7.1 8.2z"/>
  <path d="M88.7 201.3 c2.8 -7.5 10.1 -22.7 11.1 -23.1 0.8 -0.2 1.2 0.8 1.2 2.6 0 4 -0.9 6.2 -2.6 6.2 -0.9 0 -1.4 1.1 -1.4 2.9 0 3.9 -0.9 6.1 -2.6 6.1 -0.9 0 -1.4 1.2 -1.4 3.5 0 3.1 -0.3 3.5 -2.5 3.5 -1.9 0 -2.3 -0.4 -1.8 -1.7z"/>
  <path d="M112 179.2 c0 -3.1 3.9 -13.5 5.2 -14 0.4 -0.2 0.8 -1.2 0.8 -2.3 0 -1 0.5 -1.9 1 -1.9 0.6 0 1 -1.1 1 -2.5 0 -2 0.5 -2.5 2.5 -2.5 1.4 0 2.5 0.1 2.5 0.3 0 0.1 -2.4 5.8 -5.3 12.6 -5.3 12.7 -7.7 15.8 -7.7 10.3z"/>
  <path d="M101.3 172.8 c1.9 -4.6 3.7 -4.8 3.7 -0.4 0 3.2 -0.3 3.6 -2.5 3.6 -2.4 0 -2.5 -0.1 -1.2 -3.2z"/>
  <path d="M104.9 164.8 c2.9 -7.4 6.2 -13.8 7.1 -13.8 0.5 0 1 1.6 1 3.5 0 2.4 -0.5 3.5 -1.5 3.5 -1 0 -1.5 1 -1.5 2.9 0 4.4 -1 6.1 -3.6 6.1 -2 0 -2.2 -0.3 -1.5 -2.2z"/>
 </g>
 <g fill="#1c6f8c">
  <path d="M57.8 326.3 c-1 -0.2 -1.8 -1.1 -1.8 -1.9 0 -1.2 3.9 -1.4 24.5 -1.4 20.5 0 24.5 0.2 24.5 1.4 0 0.8 -1.2 1.7 -2.7 1.9 -3.4 0.7 -42.1 0.6 -44.5 0z"/>
  <path d="M111 324.2 c0 -1.8 3.7 -4.2 6.5 -4.2 0.8 0 1.5 -0.9 1.5 -2 0 -1.5 0.7 -2 2.5 -2 3 0 3.1 0.9 0.4 4.4 -3.8 4.9 -10.9 7.3 -10.9 3.8z"/>
  <path d="M49.5 323.2 c-0.5 -0.4 -1.6 -1.5 -2.4 -2.4 -1.2 -1.6 -1.1 -1.8 1.8 -1.8 2.6 0 3.1 0.4 3.1 2.5 0 2.5 -0.7 3 -2.5 1.7z"/>
  <path d="M44 316.1 c-1.6 -3.1 -1.2 -5.1 1 -5.1 1.6 0 2 0.7 2 3.5 0 3.9 -1.4 4.6 -3 1.6z"/>
  <path d="M123 312.2 c0 -4 0.9 -6.2 2.6 -6.2 0.9 0 1.4 -1.2 1.4 -3.5 0 -2.4 0.5 -3.5 1.5 -3.5 1 0 1.5 -1.1 1.5 -3.5 0 -2.4 0.5 -3.5 1.5 -3.5 1 0 1.5 -1 1.5 -2.9 0 -3.9 0.9 -6.1 2.6 -6.1 0.9 0 1.4 -1.2 1.4 -3.5 0 -2.4 0.5 -3.5 1.5 -3.5 1 0 1.5 -1.1 1.5 -3.5 0 -2.4 0.5 -3.5 1.5 -3.5 1 0 1.5 -1 1.5 -3.4 0 -1.9 0.7 -4.1 1.5 -5 0.8 -0.8 1.5 -2.1 1.5 -2.9 0 -0.9 1.6 -5.3 3.6 -9.9 2 -4.5 5.7 -13.5 8.4 -19.9 4.6 -11.2 4.7 -11.6 2.8 -12.8 -1.7 -1 -2.2 -0.9 -3.4 0.6 -0.7 1 -1.4 2.1 -1.4 2.5 0 1.6 -8.2 18.3 -9.1 18.6 -0.5 0.2 -0.9 1.5 -0.9 2.8 0 1.3 -0.4 2.4 -1 2.4 -0.5 0 -1 0.9 -1 1.9 0 1.1 -0.7 2.6 -1.5 3.5 -0.8 0.8 -1.5 2.1 -1.5 3 0 2.1 -3.2 8.6 -4.2 8.6 -0.4 0 -0.8 1.1 -0.8 2.4 0 1.4 -0.7 3.1 -1.5 4 -0.8 0.8 -1.5 2.1 -1.5 2.9 0 2.6 -1.2 4.7 -2.6 4.7 -0.9 0 -1.4 1.1 -1.4 3 0 3.2 -1.9 8 -3.2 8 -0.4 0 -0.8 1.1 -0.8 2.4 0 1.4 -0.7 3.1 -1.5 4 -0.8 0.8 -1.5 2.2 -1.5 3 0 0.9 -0.4 1.6 -1 1.6 -0.5 0 -1 0.9 -1 2 0 2.9 -2.1 7 -3.7 7 -0.8 0 -1.3 1.2 -1.3 3.5 0 2.4 -0.5 3.5 -1.5 3.5 -0.8 0 -1.5 0.7 -1.5 1.5 0 1 -1.1 1.5 -3.5 1.5 -4.2 0 -4.8 -2.4 -0.9 -3.4 2 -0.5 3.3 -2.3 6.1 -8.4 1.9 -4.2 4.5 -9.9 5.8 -12.7 1.2 -2.7 4.6 -10.4 7.5 -17 24.2 -54.9 36.2 -80.5 38.9 -82.9 2 -1.8 2.1 -1.8 6.1 1.4 2.2 1.7 4 3.4 4 3.8 0 3.5 -50 119.4 -51.8 120 -0.8 0.2 -1.2 -0.7 -1.2 -2.6z"/>
  <path d="M57 310.5 c0 -1.9 0.5 -3.5 1 -3.5 0.6 0 1 0.7 1 1.5 0 0.8 1.1 1.7 2.5 2.1 3.9 1 3.1 3.4 -1 3.4 -3.3 0 -3.5 -0.2 -3.5 -3.5z"/>
  <path d="M43.3 305.2 c0.9 -4.4 5.5 -14.2 6.6 -14.2 1.6 0 1.3 6.6 -0.2 8.2 -0.8 0.7 -1.7 3 -2.1 5.1 -0.5 2.9 -1.2 3.7 -2.8 3.7 -1.7 0 -2 -0.4 -1.5 -2.8z"/>
  <path d="M59 300.1 c0 -3.9 0.9 -6.1 2.6 -6.1 0.9 0 1.4 -1.2 1.4 -3.4 0 -1.9 0.7 -4.1 1.5 -5 0.8 -0.8 1.5 -2.4 1.5 -3.5 0 -1.6 0.6 -2.1 2.5 -2.1 l2.5 0 -1.9 4.8 c-4.1 10.2 -8.1 18.2 -9.1 18.2 -0.5 0 -1 -1.3 -1 -2.9z"/>
  <path d="M50 288.6 c0 -0.2 1.8 -4.3 4.1 -9.2 2.2 -4.9 4.7 -10.2 5.4 -11.9 4.8 -11.2 6.5 -13.2 6.5 -7.6 0 3.2 -1.9 9.1 -2.9 9.1 -0.4 0 -1.2 2 -1.9 4.5 -0.7 2.8 -1.8 4.5 -2.7 4.5 -1 0 -1.5 1 -1.5 3 0 4.6 -2 8 -4.7 8 -1.2 0 -2.3 -0.2 -2.3 -0.4z"/>
  <path d="M70 274.5 c0 -2.4 0.5 -3.5 1.5 -3.5 1 0 1.5 -1.1 1.5 -3.5 0 -3.1 0.3 -3.5 2.5 -3.5 2.1 0 2.3 0.3 1.6 2.3 -4.7 11.9 -7.1 14.7 -7.1 8.2z"/>
  <path d="M77 258.6 c0 -2 0.5 -3.6 1 -3.6 0.6 0 1 -1.1 1 -2.4 0 -1.4 0.7 -3.1 1.5 -4 0.8 -0.8 1.5 -2.4 1.5 -3.5 0 -1.2 0.6 -2.1 1.5 -2.1 1 0 1.5 -1 1.5 -3.2 0 -4.3 1.2 -6.1 3.8 -5.6 1.9 0.3 1.6 1.2 -3.7 13.7 -6 14.1 -8.1 16.8 -8.1 10.7z"/>
  <path d="M65.9 252.8 c3 -7.6 7.2 -15.8 8.1 -15.8 1.1 0 1.4 4.9 0.4 7.4 -0.3 0.9 -1.2 1.6 -2 1.6 -0.9 0 -1.4 1.1 -1.4 2.9 0 4.4 -1 6.1 -3.6 6.1 -2 0 -2.2 -0.3 -1.5 -2.2z"/>
  <path d="M75.3 231.3 c0.2 -0.5 1.3 -2.9 2.5 -5.5 2.6 -5.7 4.2 -6.2 4.2 -1.3 0 1.9 -0.4 3.5 -1 3.5 -0.5 0 -1 0.9 -1 2 0 1.5 -0.7 2 -2.6 2 -1.4 0 -2.3 -0.3 -2.1 -0.7z"/>
  <path d="M90 228.6 c0 -3.2 0.3 -3.6 2.5 -3.6 2.4 0 2.5 0.1 1.2 3.2 -1.9 4.6 -3.7 4.8 -3.7 0.4z"/>
  <path d="M95 217.6 c0 -2.5 0.4 -3.6 1.5 -3.6 1 0 1.5 -1.1 1.5 -3.5 0 -2.4 0.5 -3.5 1.5 -3.5 1 0 1.5 -1.1 1.5 -3.5 0 -2.4 0.5 -3.5 1.5 -3.5 1 0 1.5 -1.1 1.5 -3.5 0 -1.9 0.5 -3.5 1 -3.5 0.6 0 1 -0.8 1 -1.7 0 -1 1.2 -4.6 2.7 -8.1 2.2 -5 3.2 -6.2 5 -6.2 l2.3 0 -2 4.7 c-6.6 16.4 -16.9 38.8 -17.9 39.1 -0.7 0.2 -1.1 -1 -1.1 -3.2z"/>
  <path d="M81.7 217.3 c2.5 -6.8 10.2 -22.8 11.2 -23.1 0.7 -0.2 1.1 1 1.1 3.2 0 2.5 -0.4 3.6 -1.5 3.6 -1 0 -1.5 1 -1.5 3 0 3.7 -1.9 8 -3.7 8 -0.8 0 -1.3 1.2 -1.3 3.5 0 3.1 -0.3 3.5 -2.5 3.5 -1.9 0 -2.3 -0.4 -1.8 -1.7z"/>
  <path d="M94.3 188.8 c1.9 -4.6 3.7 -4.8 3.7 -0.4 0 3.2 -0.3 3.6 -2.5 3.6 -2.4 0 -2.5 -0.1 -1.2 -3.2z"/>
  <path d="M98.3 179.8 c1.9 -4.6 3.7 -4.8 3.7 -0.4 0 3.2 -0.3 3.6 -2.5 3.6 -2.4 0 -2.5 -0.1 -1.2 -3.2z"/>
  <path d="M102.3 170.8 c1.9 -4.6 3.7 -4.8 3.7 -0.4 0 3.2 -0.3 3.6 -2.5 3.6 -2.4 0 -2.5 -0.1 -1.2 -3.2z"/>
 </g>
 <g fill="#187c93">
  <path d="M110 324 c0 -1.5 0.7 -2 2.9 -2 2 0 3 -0.6 3.4 -2 0.3 -1.1 1.2 -2 2 -2 0.8 0 1.7 -1.2 2 -2.7 0.9 -4.1 2.2 -5.5 4.6 -5.1 l2.3 0.3 -2.9 5.5 c-2 3.8 -4.1 6.2 -6.9 7.7 -4.9 2.8 -7.4 2.9 -7.4 0.3z"/>
  <path d="M45.6 319.1 c-0.3 -0.4 -1 -2 -1.5 -3.5 -1 -2.4 -0.8 -2.6 1.4 -2.6 2.2 0 2.5 0.4 2.5 3.5 0 3.3 -1.2 4.6 -2.4 2.6z"/>
  <path d="M106 312.6 c0 -0.9 0.6 -1.6 1.4 -1.6 2 0 3.6 -2.4 7.7 -11.3 4.1 -9.1 5.9 -10.7 5.9 -5.3 0 2.5 -0.4 3.6 -1.5 3.6 -1 0 -1.5 1 -1.5 3 0 3.2 -1.9 8 -3.1 8 -0.4 0 -0.9 1 -1.1 2.3 -0.2 1.8 -1 2.3 -4 2.5 -2.9 0.2 -3.8 0 -3.8 -1.2z"/>
  <path d="M56 306.5 c0 -1.9 0.5 -3.5 1 -3.5 0.6 0 1 -1.1 1 -2.5 0 -2 0.5 -2.5 2.4 -2.5 l2.5 0 -2.2 6 c-2.5 6.7 -4.7 7.9 -4.7 2.5z"/>
  <path d="M126 304.6 c0 -2.5 0.4 -3.6 1.5 -3.6 1 0 1.5 -1.1 1.5 -3.5 0 -1.9 0.5 -3.5 1 -3.5 0.6 0 1 -1.1 1 -2.5 0 -2 0.5 -2.5 2.5 -2.5 1.4 0 2.5 0.1 2.5 0.3 0 0.2 -1.7 4.3 -3.8 9.2 -4.3 9.8 -6.2 11.7 -6.2 6.1z"/>
  <path d="M45.6 299.3 c0.9 -2.1 2 -4.9 2.6 -6.3 3.5 -9 5.8 -11.4 5.8 -6.1 0 4.1 -2 9.1 -3.6 9.1 -0.9 0 -1.4 1.2 -1.4 3.5 0 3.1 -0.3 3.5 -2.5 3.5 l-2.5 0 1.6 -3.7z"/>
  <path d="M65 285.5 c0 -2.4 0.5 -3.5 1.5 -3.5 1 0 1.5 -1 1.5 -3.4 0 -1.9 0.7 -4.1 1.5 -5 0.8 -0.8 1.5 -2.1 1.5 -2.9 0 -2.6 1.2 -4.7 2.6 -4.7 0.9 0 1.4 -1.2 1.4 -3.4 0 -1.9 0.7 -4.1 1.5 -5 0.8 -0.8 1.5 -2.4 1.5 -3.5 0 -1.2 0.6 -2.1 1.5 -2.1 1 0 1.5 -1.1 1.5 -3.5 0 -3.1 0.3 -3.5 2.5 -3.5 2.1 0 2.3 0.3 1.6 2.3 -0.8 1.9 -10.3 24.1 -16.2 37.5 -2.2 5.1 -3.9 5.4 -3.9 0.7z"/>
  <path d="M122.3 283.8 c1.9 -4.6 3.7 -4.8 3.7 -0.4 0 3.2 -0.3 3.6 -2.5 3.6 -2.4 0 -2.5 -0.1 -1.2 -3.2z"/>
  <path d="M135 283.7 c0 -2 0.7 -4.2 1.5 -5.1 0.8 -0.8 1.5 -2.1 1.5 -2.9 0 -2.2 4.2 -11.7 5.1 -11.7 0.5 0 0.9 -1.1 0.9 -2.4 0 -1.4 0.7 -3.1 1.5 -4 0.8 -0.8 1.5 -2.2 1.5 -3.1 0 -0.9 1.6 -5.4 3.5 -10.1 4 -9.7 4.3 -11.4 1.5 -11.4 -1.3 0 -2.6 1.2 -3.7 3.5 -0.9 1.9 -2 3.5 -2.5 3.5 -0.4 0 -0.8 0.8 -0.8 1.9 0 2.2 -10.9 26.5 -12.1 26.9 -0.5 0.2 -0.9 1.5 -0.9 2.8 0 1.3 -0.4 2.4 -1 2.4 -0.5 0 -1 0.9 -1 2 0 1.5 -0.7 2 -2.5 2 -2.9 0 -3.4 1.5 6 -19.5 7 -15.6 8.6 -19.2 15.4 -33.8 2.3 -4.9 4.1 -9 4.1 -9.2 0 -0.2 1 -2 2.1 -4 2 -3.4 2.2 -3.5 4 -1.9 1.1 0.9 1.9 1.3 1.9 0.9 0 -0.4 0.8 -0.1 1.8 0.7 0.9 0.8 2.5 1.8 3.4 2.1 1.5 0.5 1.1 2.2 -3.7 13.9 -12.8 31.3 -25.1 59.2 -26.2 59.6 -0.9 0.2 -1.3 -0.8 -1.3 -3.1z"/>
  <path d="M54.3 279.8 c1.9 -4.6 3.7 -4.8 3.7 -0.4 0 3.2 -0.3 3.6 -2.5 3.6 -2.4 0 -2.5 -0.1 -1.2 -3.2z"/>
  <path d="M64.3 256.8 c1.9 -4.6 3.7 -4.8 3.7 -0.4 0 3.2 -0.3 3.6 -2.5 3.6 -2.4 0 -2.5 -0.1 -1.2 -3.2z"/>
  <path d="M68 248.8 c4.3 -11 8.8 -20.2 9.8 -20.6 1.8 -0.6 1.5 6.3 -0.3 8.2 -0.8 0.8 -1.5 2.4 -1.5 3.5 0 1.2 -0.6 2.1 -1.5 2.1 -1 0 -1.5 1 -1.5 2.9 0 4.4 -1 6.1 -3.6 6.1 -2 0 -2.2 -0.3 -1.4 -2.2z"/>
  <path d="M89 230.6 c0 -3.2 0.3 -3.6 2.5 -3.6 2.4 0 2.5 0.1 1.2 3.2 -1.9 4.6 -3.7 4.8 -3.7 0.4z"/>
  <path d="M78.9 223.8 c3 -7.6 7.2 -15.8 8.1 -15.8 1.1 0 1.4 4.9 0.4 7.4 -0.3 0.9 -1.2 1.6 -2 1.6 -0.9 0 -1.4 1.1 -1.4 2.9 0 4.4 -1 6.1 -3.6 6.1 -2 0 -2.2 -0.3 -1.5 -2.2z"/>
  <path d="M94 219.6 c0 -2.5 0.4 -3.6 1.5 -3.6 1 0 1.5 -1.1 1.5 -3.5 0 -1.9 0.5 -3.5 1 -3.5 0.6 0 1 -0.8 1 -1.9 0 -2.5 4.1 -12.1 5.1 -12.1 0.5 0 0.9 -1.1 0.9 -2.5 0 -2 0.5 -2.5 2.5 -2.5 l2.5 0 -1.9 4.8 c-5.7 14.2 -11.9 27.6 -12.9 28 -0.8 0.2 -1.2 -0.9 -1.2 -3.2z"/>
  <path d="M87.9 203.8 c4.7 -12 7.1 -14.8 7.1 -8.3 0 2.4 -0.5 3.5 -1.5 3.5 -1 0 -1.5 1.1 -1.5 3.5 0 3.1 -0.3 3.5 -2.5 3.5 -2.1 0 -2.3 -0.3 -1.6 -2.2z"/>
  <path d="M95.3 186.8 c1.9 -4.6 3.7 -4.8 3.7 -0.4 0 3.2 -0.3 3.6 -2.5 3.6 -2.4 0 -2.5 -0.1 -1.2 -3.2z"/>
 </g>
 <g fill="#138a9b">
  <path d="M51.5 324.1 c-5.7 -3.5 -9 -9.1 -5.4 -9.1 2.6 0 4.9 2.3 4.9 4.9 0 1.7 0.6 2.1 3.5 2.1 2.8 0 3.5 0.4 3.5 2 0 2.5 -2.5 2.6 -6.5 0.1z"/>
  <path d="M114 322.5 c0 -1.8 0.5 -2.5 2 -2.5 1.1 0 2 -0.7 2 -1.5 0 -0.9 0.9 -1.5 2.5 -1.5 3.8 0 3.2 1.9 -1.9 5.8 -3.7 2.8 -4.6 2.8 -4.6 -0.3z"/>
  <path d="M125 306.6 c0 -2 0.5 -3.6 1 -3.6 0.6 0 1 -0.8 1 -1.7 0 -2.5 3.1 -10.3 4.1 -10.3 0.5 0 0.9 -0.7 0.9 -1.6 0 -0.9 3.2 -9.3 7.1 -18.6 4.9 -11.9 6.7 -17.4 6 -18.1 -1.7 -1.7 -5.3 3 -9 11.6 -1.9 4.2 -3.8 7.7 -4.2 7.7 -0.5 0 -0.9 0.7 -0.9 1.6 0 2.3 -4.1 11.4 -5.1 11.4 -0.5 0 -0.9 0.9 -0.9 2 0 2.4 -3.1 9 -4.2 9 -0.4 0 -0.8 1 -0.8 2.3 0 3.2 -1.4 4.9 -3.9 4.5 -2.2 -0.3 -1.1 -3.1 12.4 -32.3 1.5 -3.3 5.8 -12.7 9.5 -21 10.3 -22.9 10 -22.4 12.3 -21.9 1.1 0.2 2.3 0.7 2.6 1.2 0.3 0.5 1.8 1.2 3.4 1.6 1.5 0.3 2.7 1.2 2.7 1.9 0 1.9 -16.2 41.9 -23.6 58.2 -0.7 1.7 -2.8 6.6 -4.7 10.9 -3.8 8.9 -5.7 10.7 -5.7 5.2z"/>
  <path d="M57 303.6 c0 -3.2 0.3 -3.6 2.5 -3.6 2.4 0 2.5 0.1 1.2 3.2 -1.9 4.6 -3.7 4.8 -3.7 0.4z"/>
  <path d="M44.3 302.8 c1.9 -4.6 3.7 -4.8 3.7 -0.4 0 3.2 -0.3 3.6 -2.5 3.6 -2.4 0 -2.5 -0.1 -1.2 -3.2z"/>
  <path d="M61 294.8 c0 -4.3 1.2 -6.1 3.8 -5.6 l2.1 0.3 -1.9 4.3 c-2.3 5 -4 5.4 -4 1z"/>
  <path d="M67 280.5 c0 -2.4 0.5 -3.5 1.5 -3.5 1 0 1.5 -1.1 1.5 -3.5 0 -3.1 0.3 -3.5 2.5 -3.5 2.1 0 2.3 0.3 1.6 2.3 -4.7 11.9 -7.1 14.7 -7.1 8.2z"/>
  <path d="M54.9 278.8 c4.7 -12 7.1 -14.8 7.1 -8.3 0 2.4 -0.5 3.5 -1.5 3.5 -1 0 -1.5 1.1 -1.5 3.5 0 3.1 -0.3 3.5 -2.5 3.5 -2.1 0 -2.3 -0.3 -1.6 -2.2z"/>
  <path d="M74 264.6 c0 -3.2 0.3 -3.6 2.5 -3.6 2.4 0 2.5 0.1 1.2 3.2 -1.9 4.6 -3.7 4.8 -3.7 0.4z"/>
  <path d="M61.9 262.8 c2.8 -7.3 6.1 -13.8 7 -13.8 1.7 0 1.3 6.7 -0.4 8.4 -0.8 0.8 -1.5 2.1 -1.5 2.9 0 3 -1.3 4.7 -3.6 4.7 -2 0 -2.2 -0.3 -1.5 -2.2z"/>
  <path d="M73.1 237.3 c2.7 -7.3 10.7 -23.7 11.7 -24.1 0.8 -0.2 1.2 0.8 1.2 2.6 0 4 -0.9 6.2 -2.6 6.2 -0.9 0 -1.4 1.1 -1.4 3 0 3.7 -1.9 8 -3.7 8 -0.8 0 -1.3 1.2 -1.3 3.5 0 3 -0.3 3.5 -2.4 3.5 -2.3 0 -2.4 -0.2 -1.5 -2.7z"/>
  <path d="M88 232.6 c0 -3.2 0.3 -3.6 2.5 -3.6 2.4 0 2.5 0.1 1.2 3.2 -1.9 4.6 -3.7 4.8 -3.7 0.4z"/>
  <path d="M92 224.1 c0 -3.9 0.9 -6.1 2.6 -6.1 0.9 0 1.4 -1.1 1.4 -2.9 0 -5.2 2 -9.1 4.6 -9.1 l2.4 0 -1.9 4.8 c-6.1 15.4 -9.1 19.8 -9.1 13.3z"/>
  <path d="M89.3 200.8 c1.9 -4.6 3.7 -4.8 3.7 -0.4 0 3.2 -0.3 3.6 -2.5 3.6 -2.4 0 -2.5 -0.1 -1.2 -3.2z"/>
 </g>
 <g fill="#0f98a4">
  <path d="M52.1 324.3 c-4.5 -2.3 -5.2 -4.3 -1.4 -4.3 3.8 0 5.5 1.3 5.1 3.9 -0.3 2.1 -0.4 2.1 -3.7 0.4z"/>
  <path d="M108 324.3 c0 -2.1 3.2 -3.3 8.6 -3.3 1.9 0 2.4 -0.5 2.4 -2.5 0 -1.4 1.1 -4.8 2.5 -7.5 1.4 -2.7 3.8 -8.2 5.4 -12.2 1.7 -4 4.4 -10.6 6 -14.7 3.7 -8.6 3.7 -8.7 1.2 -9.4 -2.1 -0.5 -1.9 -0.9 -9.6 16.1 -2.1 4.5 -4.4 8.2 -5.1 8.2 -0.9 0 -1.4 1.2 -1.4 3.5 0 1.9 -0.4 3.5 -0.9 3.5 -0.5 0 -1.1 1.4 -1.4 3 -0.5 2.1 -1.2 3 -2.7 3 -1.1 0 -2 0.7 -2 1.5 0 1 -1.1 1.5 -3.5 1.5 -2.8 0 -3.5 -0.4 -3.5 -2 0 -1.6 0.7 -2 3 -2 3.5 0 3.1 0.8 20 -36.2 6.8 -14.9 11.7 -24.5 12.3 -24.1 0.6 0.4 0.8 0 0.5 -0.8 -0.4 -1.1 0.3 -1.6 2.9 -1.7 3.9 -0.3 7.3 2 7.3 4.8 0 1 -3.7 10.5 -8.1 21.1 -4.5 10.7 -9.7 23.2 -11.6 27.9 -7.3 17.6 -11 22.4 -18.7 23.7 -3.1 0.5 -3.6 0.3 -3.6 -1.4z"/>
  <path d="M44 315.1 c-1.6 -3.1 -1.2 -5.1 1 -5.1 1.6 0 2 0.7 2 3.5 0 3.9 -1.4 4.6 -3 1.6z"/>
  <path d="M56 308 c0 -5.7 0.1 -6 2.4 -6 2.3 0 2.4 0.2 1.4 3 -1.2 3.5 -0.5 6 1.7 6 0.8 0 1.5 0.7 1.5 1.5 0 1 -1.1 1.5 -3.5 1.5 l-3.5 0 0 -6z"/>
  <path d="M43 307.4 c0 -2.1 1.8 -5.4 3 -5.4 0.6 0 1 1.6 1 3.5 0 2.8 -0.4 3.5 -2 3.5 -1.1 0 -2 -0.7 -2 -1.6z"/>
  <path d="M46.3 297.8 c1.9 -4.6 3.7 -4.8 3.7 -0.4 0 3.2 -0.3 3.6 -2.5 3.6 -2.4 0 -2.5 -0.1 -1.2 -3.2z"/>
  <path d="M60 296.6 c0 -3.2 0.3 -3.6 2.5 -3.6 2.4 0 2.5 0.1 1.2 3.2 -1.9 4.6 -3.7 4.8 -3.7 0.4z"/>
  <path d="M50.3 288.8 c1.9 -4.6 3.7 -4.8 3.7 -0.4 0 3.2 -0.3 3.6 -2.5 3.6 -2.4 0 -2.5 -0.1 -1.2 -3.2z"/>
  <path d="M55.9 276.8 c2.8 -7.3 6.1 -13.8 7 -13.8 1.7 0 1.3 6.7 -0.4 8.4 -0.8 0.8 -1.5 2.1 -1.5 2.9 0 3 -1.3 4.7 -3.6 4.7 -2 0 -2.2 -0.3 -1.5 -2.2z"/>
  <path d="M73 266.6 c0 -3.2 0.3 -3.6 2.5 -3.6 2.4 0 2.5 0.1 1.2 3.2 -1.9 4.6 -3.7 4.8 -3.7 0.4z"/>
  <path d="M64 258.4 c0.9 -2.1 14.6 -33.4 22.5 -51.2 2.6 -5.7 4.5 -6.8 4.5 -2.5 0 3.2 -2.1 9.3 -3.2 9.3 -0.4 0 -0.8 0.9 -0.8 2 0 1.1 -0.4 2 -1 2 -0.5 0 -1 0.8 -1 1.7 0 2.9 -3.4 10.3 -4.7 10.3 -0.8 0 -1.3 1.3 -1.3 2.9 0 1.6 -0.7 3.6 -1.5 4.5 -0.8 0.8 -1.5 2.1 -1.5 3 0 2.1 -2.1 6.6 -3.2 6.6 -0.4 0 -0.8 0.9 -0.8 1.9 0 3 -1.1 5.1 -2.6 5.1 -0.9 0 -1.4 1.2 -1.4 3.5 0 3.1 -0.3 3.5 -2.5 3.5 -2.2 0 -2.4 -0.2 -1.5 -2.6z"/>
  <path d="M77 257.6 c0 -2 0.5 -3.6 1 -3.6 0.6 0 1 -0.8 1 -1.9 0 -2.2 12 -30.5 13.2 -30.9 0.4 -0.2 0.8 -0.9 0.8 -1.5 0 -0.7 0.8 -3.1 1.8 -5.4 1.3 -3.2 2.3 -4.3 3.9 -4.3 2.1 0 2.2 0.1 0.8 3.8 -3.5 9.6 -20.4 46.7 -21.4 47 -0.7 0.2 -1.1 -1 -1.1 -3.2z"/>
 </g>
 <g fill="#07adb1">
  <path d="M52.5 324.3 c-4.2 -2.2 -7.3 -6 -8.7 -10.6 -1.5 -5 -0.4 -9.1 6.3 -24 2.8 -6.1 9.6 -21.3 15.1 -33.7 13.6 -30.7 15.6 -35 16.8 -35 0.5 0 1 1.6 1 3.5 0 1.9 -0.4 3.5 -1 3.5 -0.5 0 -1 0.6 -1 1.4 0 2.1 -4.2 11.6 -5.1 11.6 -0.5 0 -0.9 0.9 -0.9 2 0 1.8 -2.9 8.9 -4 10 -0.3 0.3 -1.2 2.4 -2 4.8 -0.7 2.3 -1.7 4.2 -2.2 4.2 -0.4 0 -0.8 0.9 -0.8 1.9 0 1.1 -0.7 2.6 -1.5 3.5 -0.8 0.8 -1.5 2.4 -1.5 3.5 0 1.1 -0.7 2.6 -1.5 3.5 -0.8 0.8 -1.5 2.2 -1.5 3.1 0 1.9 -4.9 11.9 -6.1 12.3 -0.5 0.2 -0.9 1.1 -0.9 2.1 0 0.9 -1.4 4.9 -3.1 9 -2.4 5.6 -2.9 8.2 -2.4 10.8 0.6 3.5 4.4 8.3 6.5 8.3 0.5 0 1 0.5 1 1 0 0.6 1.4 1 3 1 2.3 0 3 0.4 3 2 0 2.5 -4.1 2.7 -8.5 0.3z"/>
  <path d="M87 324.1 c0 -2 0.5 -2.1 11.9 -2.1 10.6 0 12.1 -0.2 15.2 -2.3 3.2 -2.1 7.8 -9.2 9.4 -14.4 0.5 -1.9 0.3 -2.3 -1.7 -2.3 -1.8 0 -3 1.3 -5.3 5.8 l-3 5.7 -27.8 0.3 c-23.2 0.2 -28.1 0 -29.3 -1.2 -1.6 -1.6 -1.9 -8.6 -0.4 -8.6 0.6 0 1 -1.1 1 -2.4 0 -1.3 1.4 -5.5 3.1 -9.3 1.7 -3.7 6.4 -14.7 10.5 -24.3 14.3 -33.5 16.8 -39 17.6 -39 0.4 0 0.8 -1.1 0.8 -2.5 0 -2 0.5 -2.5 2.5 -2.5 l2.5 0 -1.9 4.7 c-1 2.7 -3.5 8.4 -5.4 12.8 -1.9 4.4 -7.3 17 -12 28 -4.7 11 -10.1 23.5 -12.1 27.9 -2 4.3 -3.6 8.9 -3.6 10.2 l0 2.3 24.6 0.3 c13.5 0.2 25.2 -0.1 26 -0.5 0.8 -0.5 3 -4.1 4.8 -8 9.4 -20.1 12.4 -26.6 14.1 -30.4 1.4 -3.3 2.1 -3.9 2.9 -2.9 1.2 1.5 5.9 2.9 5 1.5 -0.9 -1.4 1.6 -1 3.2 0.5 1.9 2 1.9 2 -2.6 13.2 -17.3 42.4 -15.8 40.7 -36.7 41.2 -13 0.4 -13.3 0.3 -13.3 -1.7z"/>
 </g>
 <g fill="#04bdbc">
  <path d="M56 325 c-5.2 -1.5 -6.6 -2.3 -8.7 -5 -1.2 -1.5 -2.8 -4.7 -3.4 -7.2 -1.2 -4.2 -1 -4.9 3.3 -15.3 3.8 -9 12.5 -28.7 16.8 -38 0.5 -1.1 2.5 -5.5 4.4 -9.7 2 -4.3 4 -7.8 4.6 -7.8 1.4 0 1.2 6.6 -0.3 8.2 -0.7 0.7 -1.8 3.2 -2.5 5.6 -0.7 2.3 -1.6 4.2 -2 4.2 -0.4 0 -1.3 2 -2 4.4 -0.6 2.4 -1.8 5.1 -2.7 5.9 -0.8 0.9 -1.5 2.5 -1.5 3.6 0 1.1 -0.7 2.6 -1.5 3.5 -0.8 0.8 -1.5 2.2 -1.5 3.1 0 1.9 -4.9 11.9 -6.1 12.3 -0.5 0.2 -0.9 1.4 -0.9 2.7 0 1.3 -0.6 3 -1.3 3.7 -4.3 4.5 -3.6 19.8 1 19.8 1.2 0 2.3 0.6 2.5 1.3 0.4 0.9 5.4 1.3 19.6 1.5 15 0.3 19.2 0.6 19.2 1.7 0 0.7 -1 1.5 -2.2 1.9 -3.2 0.8 -31.7 0.5 -34.8 -0.4z"/>
  <path d="M99 323 c0 -1.1 0.7 -2 1.5 -2 1.9 0 1.9 -1.1 0 -3.6 -3 -3.9 -2 -5.3 4.3 -5.6 l5.7 -0.3 3 -5.7 c1.7 -3.2 3.7 -5.8 4.5 -5.8 1.1 0 1.2 -0.2 0.2 -0.8 -0.8 -0.6 -0.1 -1.2 2.3 -1.9 2.5 -0.8 3.7 -0.8 4.2 -0.1 0.3 0.7 0.1 0.8 -0.5 0.4 -0.7 -0.4 -1.2 -0.3 -1.2 0.2 0 0.4 1.3 1.5 2.9 2.3 l3 1.4 -1.9 5.3 c-2.9 8.1 -6.2 13.4 -9.9 15.9 -2.8 1.9 -4.7 2.3 -10.7 2.3 -6.7 0 -7.4 -0.2 -7.4 -2z"/>
  <path d="M60 313.6 c0 -1.7 4.2 -2.8 7.5 -2 4.6 1.1 3 3.4 -2.5 3.4 -3.6 0 -5 -0.4 -5 -1.4z"/>
  <path d="M55 308 c0 -3.6 3.8 -14 5.1 -14 0.5 0 0.9 -0.8 0.9 -1.7 0 -2.5 11.1 -28.3 12.1 -28.3 0.5 0 0.9 -0.8 0.9 -1.7 0 -1 0.8 -3.7 1.8 -6 1.3 -3.2 2.3 -4.3 3.9 -4.3 2.1 0 2.2 0.1 0.8 3.8 -0.7 2 -4.8 11.6 -9 21.2 -11.2 25.7 -13.7 31.9 -13 33 0.3 0.6 -0.3 1 -1.4 1 -1.7 0 -2.1 -0.6 -2.1 -3z"/>
 </g>
 <g fill="#01d2cf">
  <path d="M57.6 324.8 c-6.3 -0.9 -11 -4.6 -12.9 -10.3 -2 -5.7 -1 -9.5 7.3 -27.4 3.2 -6.9 6.5 -14.3 7.3 -16.3 2.1 -5.1 3.7 -4.8 3.7 0.6 0 3.1 0.5 4.6 1.6 5 2.2 0.9 2.4 0.8 2.4 -0.9 0 -0.9 0.9 -1.5 2.5 -1.5 1.4 0 2.5 0.2 2.5 0.5 0 0.2 -2.9 7.1 -6.4 15.2 -7.8 18.1 -8.1 19 -6.6 20.8 1 1.2 5.1 1.5 22.1 1.5 l20.9 0 2 3.3 c1 1.7 2.4 3.8 3.1 4.6 1.6 1.7 -1 3.8 -5.5 4.6 -5 0.8 -39 1.1 -44 0.3z"/>
  <path d="M73 264.6 c0 -3.2 0.3 -3.6 2.5 -3.6 2.4 0 2.5 0.1 1.2 3.2 -1.9 4.6 -3.7 4.8 -3.7 0.4z"/>
  <path d="M63.3 261.8 c1.9 -4.6 3.7 -4.8 3.7 -0.4 0 3.2 -0.3 3.6 -2.5 3.6 -2.4 0 -2.5 -0.1 -1.2 -3.2z"/>
  <path d="M67.3 252.8 c1.9 -4.6 3.7 -4.8 3.7 -0.4 0 3.2 -0.3 3.6 -2.5 3.6 -2.4 0 -2.5 -0.1 -1.2 -3.2z"/>
 </g>
 <g fill="#07dbe2">
  <path d="M64.2 283.2 c-1.2 -1.2 -2.2 -2.7 -2.2 -3.3 0 -0.5 -0.5 -0.7 -1 -0.4 -0.6 0.4 -0.7 1.1 -0.4 1.7 0.4 0.6 0.2 0.8 -0.4 0.4 -0.5 -0.3 -1.3 0 -1.6 0.6 -0.8 2.1 0.2 -7.4 1.2 -11.2 1.5 -5.6 10.7 -25.3 12 -25.8 0.8 -0.2 1.2 0.7 1.2 2.6 0 1.7 0.6 3.2 1.5 3.6 0.8 0.3 1.5 1.7 1.5 3 0 1.4 0.7 2.9 1.6 3.4 1.3 0.7 1.1 1.8 -1.9 8.3 -1.8 4.1 -4 8.9 -4.8 10.7 -0.7 1.7 -1.8 3.2 -2.2 3.2 -0.5 0 -0.6 0.4 -0.3 0.9 0.3 0.4 -0.1 1.6 -0.8 2.6 -1.2 1.7 -1.4 1.7 -3.4 -0.3z"/>
 </g>
 <g fill="#0fd7e8">
  <path d="M74.2 260.8 c-1.7 -0.8 -2.2 -1.9 -2 -3.7 0.2 -2.1 -0.2 -2.7 -2.3 -3.1 -2.4 -0.5 -2.5 -0.7 -1.6 -3 0.6 -1.4 2 -5 3.1 -8 l2.1 -5.5 7.3 -0.3 c3.9 -0.2 7.2 0.1 7.2 0.5 0 1.4 -10.4 24.3 -10.9 24.2 -0.4 0 -1.6 -0.5 -2.9 -1.1z"/>
 </g>
 <g fill="#1ccfec">
  <path d="M81.1 243.2 c-1.2 -2.8 -1.6 -3.1 -5.1 -2.7 l-3.8 0.3 4.8 -10.6 c2.6 -5.9 5 -11.5 5.3 -12.5 0.7 -2 3.3 -2.3 4.1 -0.4 0.3 0.9 0.9 0.7 1.9 -0.5 0.9 -1.1 2.8 -1.8 5.1 -1.8 4.8 0 4.7 1.6 -0.9 13.6 -2.5 5.2 -4.5 9.7 -4.5 10.1 0 0.3 -1.1 1.6 -2.4 2.8 -1.3 1.2 -2.5 2.7 -2.8 3.5 -0.2 0.8 -0.9 0.1 -1.7 -1.8z"/>
 </g>
 <g fill="#2ec4f0">
  <path d="M80.6 221.5 c0.4 -0.8 1 -1.5 1.6 -1.5 0.5 0 0.7 -0.4 0.3 -0.9 -0.3 -0.5 0.8 -3.8 2.3 -7.3 1.6 -3.5 4 -9.1 5.3 -12.5 2.4 -6.3 3.6 -7.3 8.7 -7.3 2 0 7.1 4.4 7.2 6.2 0 0.4 -2.4 6.1 -5.4 12.8 -4.1 9.2 -5.5 11.6 -6.1 10.3 -0.5 -1 -0.7 -2.1 -0.7 -2.5 0.4 -1.6 -1.4 -0.7 -2.6 1.2 -0.9 1.5 -1.9 1.8 -4.1 1.4 -1.6 -0.3 -3.8 -0.1 -5 0.5 -1.7 1 -2 0.9 -1.5 -0.4z"/>
 </g>
 <g fill="#48b2f2">
  <path d="M102.7 204.3 c0.4 -2.5 0 -3.9 -1.9 -6.2 -2.5 -2.9 -2.5 -2.9 -5.9 -1.3 -1.9 0.9 -3.8 2.1 -4.2 2.7 -1.4 1.6 -0.2 -1.4 5.9 -15.4 5.3 -12.3 5.9 -13.1 8.5 -13.1 3.1 0 8.2 2.6 9.6 5 0.9 1.4 -2.1 8.9 -11.4 29 -1.1 2.4 -1.2 2.4 -0.6 -0.7z"/>
 </g>
 <g fill="#5ba4f7">
  <path d="M112.2 179.8 c-1.5 -2.8 -7.5 -6.5 -8 -4.9 -0.2 0.6 -1 1.1 -1.7 1.1 -0.8 0 -1.9 0.8 -2.5 1.8 -1.7 2.6 -0.9 0.5 3.5 -9.7 l4 -9.3 7.3 0.5 c4.1 0.3 7.6 0.8 7.8 1 0.4 0.4 -2 6.4 -7.4 18 -1.8 3.9 -1.8 3.9 -3 1.5z"/>
 </g>
 <g fill="#6998f7">
  <path d="M119.5 165.7 c0.6 -2.2 0.3 -2.5 -3.2 -3 -5.3 -0.9 -9.3 -0.9 -9.3 0.1 0 0.5 -0.7 1.7 -1.5 2.8 -0.8 1 1.1 -4.1 4.2 -11.3 l5.8 -13.3 4.6 0 c3.9 0 4.9 0.4 6.4 2.6 2.4 3.7 2.2 5.1 -1.8 13.6 -2 4.3 -3.7 8.2 -3.7 8.7 0 0.5 -0.5 1.3 -1 1.6 -0.7 0.4 -0.9 -0.2 -0.5 -1.8z"/>
 </g>
 <g fill="#8188f6">
  <path d="M124.6 155.5 c1 -4.3 0.8 -6 -1.1 -8.9 -2.8 -4.3 -6.6 -3.3 -11 2.9 -0.8 1.1 1.3 -4.4 4.7 -12.2 6.9 -16.1 6.8 -16 15.4 -12.2 2.7 1.2 5 2.3 5.2 2.4 0.1 0.1 -0.9 2.6 -2.2 5.6 -4.8 10.9 -8.7 19.5 -10.2 22.4 l-1.5 3 0.7 -3z"/>
 </g>
 <g fill="#9676f9">
  <path d="M133.3 136.7 c2.5 -6.7 3 -6 -7.9 -10.1 l-3.2 -1.2 4.8 -10.4 c2.8 -6.4 5.3 -10.6 6.3 -10.8 1 -0.2 1.7 0 1.7 0.5 0 0.5 2.5 1.7 5.5 2.8 3 1 5.5 2 5.5 2.3 0 0.7 -12.2 27.6 -12.8 28.2 -0.3 0.3 -0.2 -0.3 0.1 -1.3z"/>
 </g>
 <g fill="#f817f8">
  <path d="M266.1 325.6 c-2.4 -1.4 -3.4 -3.2 -29.6 -60.8 -12.8 -28.1 -14 -31.3 -13.1 -36 0.8 -4.3 3.7 -8.3 7.4 -10.2 1.5 -0.7 7 -1.6 12.2 -2 32.2 -2.1 57.9 -22.1 67.3 -52.1 1.9 -6.2 3.8 -19.9 3.3 -24 -0.2 -1.6 -0.7 -5.6 -1.1 -8.8 -1.6 -13.4 -8.7 -27.6 -19.6 -39.1 -8.7 -9.2 -18 -15.3 -29.7 -19.3 -7.1 -2.5 -9.3 -2.7 -28.8 -3.3 -26.5 -0.6 -25.6 -0.1 -22.8 -13.9 l0.7 -3.4 20.3 0.6 c24.7 0.8 33.3 2.6 47.5 9.8 17.6 9 31.4 23 40 40.4 11 22.6 12.6 44 4.9 67.4 -11.2 34.1 -41.3 58.4 -76.7 61.6 -4 0.4 -7.3 1.1 -7.3 1.7 0 0.5 1.2 3.5 2.6 6.6 1.5 3.1 3.4 7.5 4.4 9.7 1 2.2 3.1 6.9 4.8 10.5 1.7 3.6 6.1 13.3 9.8 21.5 3.6 8.3 8.6 19.4 11 24.8 2.4 5.3 4.4 10.8 4.4 12.1 0 2.7 -5.1 7.6 -7.8 7.6 -0.9 -0.1 -2.8 -0.7 -4.1 -1.4z"/>
 </g>
 <g fill="#ab65f9">
  <path d="M141.5 112.4 c-1.1 -0.8 -3.7 -2 -5.7 -2.6 -2.1 -0.6 -3.8 -1.5 -3.8 -2 0 -0.5 -0.4 -0.6 -1 -0.3 -0.5 0.3 -0.3 -0.9 0.5 -2.7 8.5 -20 12.3 -28.2 13.3 -28.6 0.8 -0.2 1.2 1 1.2 3.7 0 3 0.6 4.4 2.2 5.5 2 1.4 2.3 1.4 3.1 0.1 0.4 -0.8 2.1 -1.5 3.7 -1.5 l2.9 0 -4.5 9.8 c-2.5 5.3 -5.5 12.1 -6.7 14.9 -1.2 2.9 -2.4 5.3 -2.7 5.3 -0.3 0 -1.4 -0.7 -2.5 -1.6z"/>
 </g>
 <g fill="#c250fb">
  <path d="M266.1 325.6 c-2.1 -1.1 -10.6 -17.8 -15.3 -29.6 -2.5 -6.4 1.3 0.5 7.2 13.2 5.5 11.9 7 14.3 9.3 15.1 3.7 1.2 8.5 -0.8 9.3 -3.8 0.3 -1.2 -0.1 -3.7 -0.9 -5.6 -0.8 -1.9 -3.1 -7.1 -5.1 -11.7 -1.9 -4.6 -3.2 -8.1 -2.7 -7.8 1.5 0.9 10.1 21.5 10.1 24 0 2.7 -5.1 7.6 -7.8 7.6 -0.9 -0.1 -2.8 -0.7 -4.1 -1.4z"/>
  <path d="M244.4 282.3 c-5.3 -11.3 -6.5 -14.3 -5.9 -14.3 0.4 0 4.5 8.3 9 18.5 1 2.2 2 4.3 2.2 4.8 0.2 0.4 0.2 0.7 -0.2 0.7 -0.3 0 -2.6 -4.4 -5.1 -9.7z"/>
  <path d="M261.6 283.1 c-1.3 -2 -2.5 -6.2 -1.7 -5.7 0.5 0.3 1.4 1.9 1.9 3.6 1 2.9 0.9 4 -0.2 2.1z"/>
  <path d="M254.9 268.3 c-4.9 -10.7 -6 -13.3 -5.4 -13.3 0.5 0 6.7 12.7 8.5 17.5 1.9 5 -0.1 2.3 -3.1 -4.2z"/>
  <path d="M236.6 265.1 c-1.1 -1.7 -2.7 -6.6 -1.9 -5.6 1.2 1.3 3.4 6.5 2.8 6.5 -0.2 0 -0.6 -0.4 -0.9 -0.9z"/>
  <path d="M229.8 250.3 c-3.9 -8.6 -4.9 -11.3 -4.2 -11.3 0.3 0 1.2 1.7 2.1 3.8 1.8 4.5 5.4 12.4 6 13.5 0.2 0.4 0.1 0.7 -0.2 0.7 -0.3 0 -2 -3 -3.7 -6.7z"/>
  <path d="M244 244.4 c-2.2 -4.8 -4 -9.4 -3.9 -10.3 0 -1.3 0.1 -1.4 0.6 -0.1 0.3 0.8 1.9 4.4 3.5 8 3.8 8.3 4.9 11 4.3 11 -0.3 0 -2.3 -3.9 -4.5 -8.6z"/>
  <path d="M223.4 234.6 c-0.8 -4.4 0.2 -8.8 2.8 -12.1 2.3 -2.9 6.9 -5.5 9.5 -5.4 1 0 0.4 0.5 -1.3 1 -6.9 2 -11.5 9.8 -9.9 16.8 0.4 1.7 0.4 3.1 0.1 3.1 -0.3 0 -0.8 -1.5 -1.2 -3.4z"/>
  <path d="M244 232 c0.8 -0.5 2.9 -0.9 4.5 -0.9 2.6 0 2.7 0.2 1 0.9 -1.1 0.5 -3.1 0.9 -4.5 0.9 -2 0.1 -2.2 -0.1 -1 -0.9z"/>
  <path d="M256 230.8 c11 -3.2 17.2 -5.4 23.4 -8.5 3.7 -1.9 7 -3.2 7.3 -2.9 1.6 1.6 -27.7 12.8 -32.7 12.5 -0.8 -0.1 0.1 -0.6 2 -1.1z"/>
  <path d="M244.5 217.1 c1.1 -0.5 3.4 -1 5 -1 3.6 -0.1 14.3 -3.1 20.5 -5.9 18.6 -8.1 34 -25.6 40.3 -45.7 1.9 -6.2 3.8 -19.9 3.3 -24 -0.2 -1.6 -0.7 -5.6 -1.1 -8.8 -1.5 -12.9 -8.6 -27.4 -18.8 -38.3 -10.7 -11.5 -20.8 -17.6 -35.7 -21.6 -4.5 -1.2 -7.8 -2.4 -7.2 -2.6 2.1 -0.7 16.6 3.9 23.3 7.4 19.3 10.2 33.5 28.6 38.8 50.8 2.7 11 2.4 26.3 -0.8 37.1 -2.5 8.5 -7.5 18.5 -11 22.3 -1.4 1.5 -4.2 4.6 -6.1 6.7 -10.6 11.9 -27.4 21.1 -41.7 23 -2.6 0.3 -6.1 0.8 -7.8 1.1 -2.4 0.3 -2.6 0.2 -1 -0.5z"/>
  <path d="M292 215.1 c0 -0.6 1.2 -1.8 2.8 -2.8 1.5 -0.9 5.4 -4.2 8.6 -7.2 4.2 -4 5.3 -4.7 3.8 -2.4 -1.9 2.7 -6.4 6.8 -13.4 12.2 -1.2 0.9 -1.8 1 -1.8 0.2z"/>
  <path d="M310.1 197.5 c1.1 -2.5 7.3 -11.5 7.6 -11.1 0.7 0.6 -4.5 9.2 -6.4 10.8 -0.9 0.7 -1.4 0.9 -1.2 0.3z"/>
  <path d="M319.2 183.5 c3.4 -9.3 4.4 -11.5 5 -11.5 1 0 -2 7.7 -4 10.5 -0.8 1.1 -1.2 1.6 -1 1z"/>
  <path d="M326.6 160.3 c0.8 -3.2 1.4 -7.4 1.4 -9.3 0 -1.9 0.5 -4.2 1.1 -5 0.7 -1.1 0.9 0.2 0.4 4.5 -0.9 8.3 -2.5 15.5 -3.5 15.5 -0.4 0 -0.1 -2.6 0.6 -5.7z"/>
  <path d="M328.6 135.4 c-1 -6.9 -4.8 -21.7 -6.7 -26.4 -1.4 -3.4 -1.5 -4 -0.4 -2.5 3 3.9 9.7 30.6 8.1 32.2 -0.3 0.3 -0.7 -1.2 -1 -3.3z"/>
  <path d="M313.8 94.3 c-4.9 -8.2 -18.7 -21.5 -27.6 -26.5 -2.9 -1.7 -5.1 -3.3 -4.8 -3.6 1.3 -1.2 12.6 7 20.6 14.8 8.2 8 16.1 18 14.3 18 -0.5 0 -1.6 -1.2 -2.5 -2.7z"/>
  <path d="M149.1 91.3 c-0.8 -0.3 -2.7 -1.7 -4.4 -3.2 -2.5 -2.3 -2.8 -3 -2.2 -6.5 1.7 -10.7 9.8 -21.5 19.4 -26 4.4 -2 6.3 -2.1 40.6 -2.4 22.4 -0.2 36.9 0.1 38.5 0.7 1.9 0.7 -0.1 1 -8.5 1.1 -6 0.1 -12.1 0.4 -13.5 0.7 -1.4 0.2 -13.1 0.8 -26 1.2 -24.1 0.7 -27.2 1.3 -32.5 5.5 -1.7 1.3 -1.8 1.5 -0.3 1.6 0.9 0 2.1 0.7 2.5 1.5 0.7 1.2 1.6 1.3 4.3 0.5 5.8 -1.7 9 -1.3 9 1 0 1.4 -0.7 2 -2.2 2 -1.3 0 -4.2 0.9 -6.5 1.9 -3.4 1.6 -4.6 3 -7.2 8.4 -2.8 5.9 -7.8 12.8 -9.1 12.6 -0.3 0 -1.1 -0.3 -1.9 -0.6z"/>
  <path d="M195.8 69.3 c-1 -0.2 -1.8 -1.1 -1.8 -1.9 0 -1.2 2.2 -1.5 13.5 -1.3 7.4 0 13.8 0.5 14.1 1 0.3 0.5 4.9 0.9 10.2 1 5.3 0 11.5 0.4 13.7 0.8 2.5 0.6 -5.7 0.9 -22 0.9 -14.3 0 -26.8 -0.2 -27.7 -0.5z"/>
  <path d="M267.5 59.4 c-3.8 -1.3 -9.7 -2.9 -13 -3.6 -3.3 -0.6 -5.2 -1.3 -4.1 -1.6 3.7 -0.8 25.6 5.4 25.6 7.3 0 0.7 -0.6 0.5 -8.5 -2.1z"/>
 </g>
 <g fill="#df36fb">
  <path d="M267.2 325.9 c-2.1 -0.8 -6.2 -6.4 -6.2 -8.4 0.1 -0.5 1 0.6 2 2.6 2.2 4.2 5.9 5.6 10.2 3.8 4.5 -1.8 4.5 -4.7 -0.1 -15 -2.3 -5.1 -4 -9.4 -3.8 -9.5 0.5 -0.6 7.7 15.4 8.3 18.4 1.1 5.3 -5.1 10 -10.4 8.1z"/>
  <path d="M257.7 310.5 c-2.4 -5 -2 -5.8 0.4 -1.2 1.1 2.2 1.9 4.1 1.7 4.3 -0.3 0.2 -1.2 -1.2 -2.1 -3.1z"/>
  <path d="M252.1 298.8 c-0.5 -1.3 -2.5 -5.8 -4.5 -10.2 -2.1 -4.3 -3.5 -8 -3.3 -8.2 0.2 -0.2 1.8 2.9 3.6 6.9 5.2 11.2 6.2 13.7 5.6 13.7 -0.3 0 -0.9 -1 -1.4 -2.2z"/>
  <path d="M264.7 290.3 c-6.8 -14.9 -8.8 -19.5 -8.4 -19.9 0.2 -0.3 3.2 5.7 6.6 13.2 3.4 7.5 6 13.8 5.8 14 -0.2 0.2 -2 -3.1 -4 -7.3z"/>
  <path d="M237.7 267.5 c-2.4 -5 -2 -5.8 0.4 -1.2 1.1 2.2 1.9 4.1 1.7 4.3 -0.3 0.2 -1.2 -1.2 -2.1 -3.1z"/>
  <path d="M247.5 252.1 c-4.2 -9.3 -7.5 -17.5 -7.2 -18.3 0.4 -0.9 0.6 -0.8 0.6 0.3 0.1 0.9 3.5 8.9 7.6 17.9 4.1 9 7.3 16.5 7.2 16.7 -0.2 0.2 -3.9 -7.3 -8.2 -16.6z"/>
  <path d="M233.7 258.5 c-2.4 -5 -2 -5.8 0.4 -1.2 1.1 2.2 1.9 4.1 1.7 4.3 -0.3 0.2 -1.2 -1.2 -2.1 -3.1z"/>
  <path d="M225.7 240.5 c-0.9 -2 -1.7 -4.1 -1.7 -4.8 0 -0.7 0.9 0.8 2 3.2 2.4 5.2 2.1 6.6 -0.3 1.6z"/>
  <path d="M243.5 232.1 c1.1 -0.5 5.4 -1.1 9.5 -1.3 4.1 -0.3 6.4 -0.3 5 0.1 -3.5 1.1 -16.9 2.1 -14.5 1.2z"/>
  <path d="M267 227.6 c23 -8.1 38 -20.7 50.8 -42.6 2.5 -4.1 4.1 -6.6 3.8 -5.5 -1.5 4.3 -9 16.4 -13.6 21.8 -5.8 6.8 -14.3 14 -21.9 18.6 -6.1 3.7 -21.5 10.1 -24 10 -0.9 0 1.3 -1.1 4.9 -2.3z"/>
  <path d="M224.1 226.9 c-0.1 -1.9 6.2 -8.9 8 -8.9 0.7 0 0.2 0.8 -1.1 1.7 -2.6 1.8 -5 4.6 -6.2 7.3 -0.6 1.3 -0.7 1.3 -0.7 -0.1z"/>
  <path d="M236.8 217.3 c1.7 -0.2 4.7 -0.2 6.5 0 1.7 0.2 0.3 0.4 -3.3 0.4 -3.6 0 -5 -0.2 -3.2 -0.4z"/>
  <path d="M249.3 216.3 c0.9 -0.2 2.5 -0.2 3.5 0 0.9 0.3 0.1 0.5 -1.8 0.5 -1.9 0 -2.7 -0.2 -1.7 -0.5z"/>
  <path d="M259 214.4 c2.5 -0.7 5 -1.3 5.5 -1.3 1.8 0.1 -5.9 2.7 -8 2.8 -1.1 0 0 -0.7 2.5 -1.5z"/>
  <path d="M271 210.1 c23.1 -11.5 38.4 -32 41.9 -56.1 1.8 -12.3 2 -12.9 1.6 -4.5 -0.7 13.2 -6.8 30.3 -13.4 37.3 -1.4 1.5 -4.2 4.6 -6.1 6.7 -5.8 6.5 -13.1 12.1 -20.7 15.9 -3.9 2 -7.5 3.6 -8 3.5 -0.4 0 1.7 -1.3 4.7 -2.8z"/>
  <path d="M322 176.8 c0 -0.4 0.6 -2.5 1.4 -4.5 3.2 -8.3 5 -19.9 5 -31.8 0 -9.7 0.2 -11 0.9 -7 1.6 9.9 -1.7 33.9 -5.8 41.3 -0.8 1.5 -1.4 2.4 -1.5 2z"/>
  <path d="M313.6 136.1 c-0.4 -2.9 -0.5 -5.5 -0.2 -5.8 0.6 -0.7 1.9 8.3 1.4 9.9 -0.3 0.7 -0.8 -1.1 -1.2 -4.1z"/>
  <path d="M325.7 121.3 c-0.9 -3.6 -1.6 -6.8 -1.3 -7 0.2 -0.2 1.2 2.6 2.1 6.2 1 3.6 1.6 6.7 1.4 7 -0.3 0.2 -1.2 -2.6 -2.2 -6.2z"/>
  <path d="M309.8 119.5 c-0.3 -1.1 -0.9 -2.9 -1.3 -4 -0.3 -1.1 0.1 -0.7 1 0.8 0.9 1.6 1.5 3.3 1.2 4 -0.2 0.6 -0.6 0.3 -0.9 -0.8z"/>
  <path d="M319.1 103.2 c-9.1 -18.8 -27.9 -35.3 -49.8 -43.7 -3.7 -1.4 -5.4 -2.3 -3.8 -2 14.6 3 35.6 17.9 47.2 33.7 4.1 5.5 9.7 15.7 9.1 16.4 -0.3 0.2 -1.5 -1.8 -2.7 -4.4z"/>
  <path d="M298.5 98.4 c-8.3 -11 -20.3 -19.8 -34 -25.2 -3.3 -1.2 -4.6 -2 -3 -1.7 5.1 0.9 18.7 8.1 25 13.2 5.4 4.4 14.2 14.2 16.6 18.6 1.8 3.2 0.3 1.7 -4.6 -4.9z"/>
  <path d="M160.1 69.4 c-0.6 -1.3 -1.7 -2.4 -2.6 -2.4 -1 0 -1.5 -1 -1.5 -3.4 0 -2.8 0.6 -3.8 3.4 -5.5 1.8 -1.2 5.8 -2.6 8.7 -3.1 7.9 -1.5 78.7 -1.4 87.4 0.1 3.9 0.7 6.4 1.4 5.8 1.6 -0.7 0.3 -3.7 0 -6.5 -0.7 -5.2 -1.1 -33.9 -1.3 -37.8 -0.3 -1.2 0.3 -2 1.4 -2 2.7 0 1.1 -0.4 2.7 -0.9 3.5 -1.1 1.8 0.8 3.9 4 4.4 1.3 0.2 3.1 0.7 3.9 1 0.8 0.4 6 0.8 11.5 1 5.5 0.2 -6.7 0.4 -27.1 0.5 -26.1 0.1 -37.9 0.5 -40 1.3 -4.6 1.9 -5.1 1.8 -6.3 -0.7z"/>
  <path d="M247.8 69.3 c1.2 -0.2 3.2 -0.2 4.5 0 1.2 0.2 0.2 0.4 -2.3 0.4 -2.5 0 -3.5 -0.2 -2.2 -0.4z"/>
 </g>
</svg>